<svg width="20" height="21" viewBox="0 0 20 21" fill="none" xmlns="http://www.w3.org/2000/svg">
<path d="M17.3091 16.9231L13.5815 13.1956C14.5973 11.9532 15.0968 10.3679 14.9765 8.76767C14.8563 7.16741 14.1256 5.67457 12.9355 4.59795C11.7455 3.52133 10.1872 2.94329 8.58289 2.9834C6.97862 3.02351 5.45113 3.6787 4.31638 4.81345C3.18163 5.9482 2.52644 7.47569 2.48633 9.07997C2.44622 10.6842 3.02426 12.2426 4.10088 13.4326C5.1775 14.6226 6.67034 15.3534 8.2706 15.4736C9.87087 15.5938 11.4561 15.0944 12.6985 14.0786L16.426 17.8061C16.5438 17.9199 16.7016 17.9828 16.8653 17.9814C17.0291 17.98 17.1857 17.9143 17.3015 17.7985C17.4173 17.6828 17.4829 17.5261 17.4844 17.3624C17.4858 17.1986 17.4228 17.0409 17.3091 16.9231ZM8.74923 14.2422C7.76114 14.2422 6.79523 13.9492 5.97366 13.4002C5.15209 12.8513 4.51175 12.071 4.13363 11.1581C3.7555 10.2453 3.65656 9.24076 3.84933 8.27165C4.0421 7.30254 4.51791 6.41236 5.2166 5.71367C5.91529 5.01498 6.80547 4.53917 7.77458 4.3464C8.74369 4.15363 9.7482 4.25257 10.6611 4.6307C11.574 5.00883 12.3542 5.64916 12.9032 6.47073C13.4521 7.2923 13.7451 8.25821 13.7451 9.2463C13.7436 10.5708 13.2168 11.8407 12.2802 12.7773C11.3436 13.7139 10.0738 14.2407 8.74923 14.2422Z" fill="#8A90A9"/>
</svg>
