<svg width="52" height="52" viewBox="0 0 52 52" fill="none" xmlns="http://www.w3.org/2000/svg">
<g clip-path="url(#clip0_11571_698)">
<path d="M0.500002 26C0.500001 40.0833 11.9167 51.5 26 51.5C40.0833 51.5 51.5 40.0833 51.5 26C51.5 11.9167 40.0833 0.499999 26 0.499998C11.9167 0.499997 0.500003 11.9167 0.500002 26Z" stroke="#0F172A" stroke-opacity="0.2"/>
<path fill-rule="evenodd" clip-rule="evenodd" d="M28.8751 20.2343C29.1875 20.5467 29.1875 21.0533 28.8751 21.3657L24.2407 26L28.8751 30.6343C29.1875 30.9467 29.1875 31.4533 28.8751 31.7657C28.5626 32.0781 28.0561 32.0781 27.7437 31.7657L21.978 26L27.7437 20.2343C28.0561 19.9219 28.5626 19.9219 28.8751 20.2343Z" fill="#626880"/>
</g>
<defs>
<clipPath id="clip0_11571_698">
<rect width="52" height="52" fill="white" transform="translate(52 52) rotate(-180)"/>
</clipPath>
</defs>
</svg>
